<svg xmlns="http://www.w3.org/2000/svg" width="54" height="59" viewBox="0 0 54 59">
    <defs>
        <filter id="a" width="291.7%" height="326.6%" x="-95.9%" y="-113.3%" filterUnits="objectBoundingBox">
            <feGaussianBlur in="SourceGraphic" stdDeviation="7"/>
        </filter>
    </defs>
    <g fill="none" fill-rule="evenodd" transform="translate(14)">
        <ellipse cx="12.83" cy="33.548" fill="#B8B8B8" filter="url(#a)" rx="10.952" ry="9.266"/>
        <path fill="#0DA1F5" d="M12.638 20.316c-4.004 0-7.261-3.325-7.261-7.413 0-4.087 3.257-7.413 7.26-7.413 4.004 0 7.261 3.326 7.261 7.413 0 4.088-3.257 7.413-7.26 7.413m0-20.316C5.652 0 0 5.77 0 12.903c0 2.685.785 5.17 2.159 7.213 2.276 3.446 10.479 8.015 10.479 15.668 0-7.694 8.202-12.222 10.479-15.668 1.373-2.044 2.158-4.528 2.158-7.213C25.275 5.81 19.624 0 12.638 0"/>
    </g>
</svg>
