<svg xmlns="http://www.w3.org/2000/svg" width="20" height="20" viewBox="0 0 20 20">
    <path fill="#0DA1F5" fill-rule="evenodd" stroke="#0DA1F5" stroke-width=".4" d="M18.841 9.094l-8.458-7.95a.584.584 0 0 0-.767 0L1.16 9.093a.488.488 0 0 0 0 .72c.106.1.245.15.383.15.14 0 .278-.05.384-.15L10 2.224l8.075 7.59a.567.567 0 0 0 .766 0 .488.488 0 0 0 0-.72m-2.42.45c-.3 0-.543.228-.543.51v7.927h-2.972v-3.06c0-1.506-1.303-2.731-2.906-2.731-1.603 0-2.907 1.225-2.907 2.732v3.059H4.122v-7.928c0-.281-.243-.51-.543-.51-.299 0-.542.229-.542.51v8.437c0 .282.243.51.542.51h4.057c.299 0 .542-.228.542-.51v-3.568c0-.944.817-1.713 1.822-1.713 1.005 0 1.822.77 1.822 1.713v3.568c0 .282.243.51.542.51h4.057c.299 0 .542-.228.542-.51v-8.437c0-.28-.243-.51-.542-.51"/>
</svg>
