<?xml version="1.0" encoding="UTF-8"?>
<svg viewBox="0 0 65 65" xmlns="http://www.w3.org/2000/svg">
<g>
<g fill-rule="evenodd">
<path d="m46.814 38.433l-5.764-5.033-1.132 0.868-3.08 1.418-4.485-3.54-3.793-2.19-1.823 0.055002-9.271 8.912v3.947l0.774 1.216 27.51-0.697 1.064-0.415v-4.541zm-9.251-10.892c0-1.537 1.223-2.783 2.733-2.783s2.734 1.246 2.734 2.783-1.224 2.782-2.734 2.782-2.733-1.245-2.733-2.782" fill="#F6F7F8"/>
<path d="m19.346 21.023c-0.576 0-1.044 0.477-1.044 1.063v20.827c0 0.586 0.468 1.063 1.044 1.063h26.31c0.575 0 1.044-0.477 1.044-1.063v-20.827c0-0.586-0.469-1.063-1.044-1.063h-26.31zm0 23.804c-1.036 0-1.88-0.858-1.88-1.913v-20.828c0-1.055 0.845-1.913 1.88-1.913h26.31c1.036 0 1.879 0.858 1.879 1.913v20.827c0 1.055-0.843 1.913-1.88 1.913h-26.309v9.99e-4z" fill="#DBE1E6"/>
<path d="m40.296 24.99c-1.381 0-2.505 1.145-2.505 2.55 0 1.407 1.124 2.551 2.505 2.551 1.382 0 2.506-1.144 2.506-2.55s-1.124-2.55-2.506-2.55m0 5.95c-1.842 0-3.34-1.525-3.34-3.4s1.498-3.4 3.34-3.4c1.842 0 3.341 1.525 3.341 3.4s-1.499 3.4-3.34 3.4m-22.413 8.477a0.426 0.426 0 0 1 -0.275 -0.745l9.378-8.353c0.435-0.387 0.988-0.6 1.558-0.6 0.549 0 1.087 0.2 1.515 0.562l6.694 5.679c0.177 0.15 0.2 0.419 0.053001 0.6a0.414 0.414 0 0 1 -0.59 0.052002l-6.692-5.678a1.52 1.52 0 0 0 -0.98 -0.362c-0.37 0-0.729 0.137-1.008 0.387l-9.378 8.352a0.404 0.404 0 0 1 -0.275 0.106" fill="#DBE1E6"/>
<path d="m33.831 39.418a0.414 0.414 0 0 1 -0.327 -0.16 0.432 0.432 0 0 1 0.065002 -0.598l5.426-4.42a2.321 2.321 0 0 1 2.957 0.001999l5.427 4.419c0.179 0.146 0.208 0.415 0.064999 0.597a0.416 0.416 0 0 1 -0.588 0.067001l-5.426-4.42a1.515 1.515 0 0 0 -0.956 -0.344c-0.344 0-0.684 0.122-0.956 0.343l-5.427 4.42a0.407 0.407 0 0 1 -0.26 0.094002" fill="#DBE1E6"/>
</g>
</g>
</svg>
