<svg xmlns="http://www.w3.org/2000/svg" width="24" height="15" viewBox="0 0 24 15">
    <g fill="none" fill-rule="evenodd">
        <path fill="#F6F7F8" d="M23 10.599l-4.517-3.917-.888.675-2.414 1.104-3.514-2.755L8.694 4l-1.429.043L0 10.981v3.073L.607 15l21.56-.542.833-.323zM15.559 2.6a2.116 2.116 0 1 1 4.23.001 2.116 2.116 0 0 1-4.23-.001"/>
        <path fill="#DBE1E6" d="M17.675.661c-1.07 0-1.94.87-1.94 1.939 0 1.068.87 1.938 1.94 1.938 1.07 0 1.94-.87 1.94-1.938 0-1.07-.87-1.939-1.94-1.939m0 4.523A2.588 2.588 0 0 1 15.09 2.6 2.588 2.588 0 0 1 17.675.015 2.588 2.588 0 0 1 20.262 2.6a2.588 2.588 0 0 1-2.587 2.584M.324 11.626a.32.32 0 0 1-.243-.11.32.32 0 0 1 .03-.457l7.26-6.347a1.833 1.833 0 0 1 1.206-.457c.425 0 .842.152 1.173.428l5.183 4.316a.323.323 0 1 1-.416.496L9.336 5.178a1.185 1.185 0 0 0-1.54.019l-7.26 6.348a.316.316 0 0 1-.212.08"/>
        <path fill="#DBE1E6" d="M12.67 11.626a.323.323 0 0 1-.203-.576l4.201-3.358a1.818 1.818 0 0 1 2.289 0l4.201 3.359a.324.324 0 0 1-.404.504l-4.202-3.359a1.186 1.186 0 0 0-.74-.26c-.266 0-.529.092-.74.26l-4.201 3.36a.319.319 0 0 1-.201.07"/>
    </g>
</svg>
