<svg version="1.1" xmlns="http://www.w3.org/2000/svg" width="368.42857128260084" height="93.28571435869955" enable-background="new 201.6 142.098 488.976 302.985" xml:space="preserve" style=""><rect id="backgroundrect" width="100%" height="100%" x="0" y="0" fill="none" stroke="none" class="selected" style=""/>


<g class="currentLayer" style=""><title>Layer 1</title><g display="none" id="svg_1">
	<rect x="302.0710144042969" y="199.32000732421875" display="inline" fill="#0A2231" width="196" height="201.36000061035156" id="svg_2"/>
	<g display="inline" id="svg_3">
		<g id="svg_4">
			<g id="svg_5">
				<path fill="#FFFFFF" d="M345.261,352.409h-7.557l-1.512,3.432h-3.622l8.062-16.916h1.703l8.084,16.916h-3.623L345.261,352.409z       M338.929,349.558h5.109l-2.566-5.594L338.929,349.558z" id="svg_6"/>
				<path fill="#FFFFFF" d="M367.191,338.925h3.742l-7.892,16.916h-1.584l-7.87-16.916h3.72l4.942,11.038L367.191,338.925z" id="svg_7"/>
				<path fill="#FFFFFF" d="M381.418,355.841h-3.456v-16.916h3.456V355.841z" id="svg_8"/>
				<path fill="#FFFFFF" d="M402.553,350.877c0,3.262-2.614,5.177-6.547,5.177c-2.881,0-4.342-0.264-7.031-1.608l1.246-2.657      c2.234,1.075,3.793,1.294,5.904,1.294c1.848,0,2.95-0.673,2.95-1.924c0-1.149-1.128-1.652-3.597-2.23      c-3.482-0.791-6.287-1.771-6.287-5.108c0-2.971,2.375-5.082,6.236-5.082c2.568,0,4.822,0.647,6.479,1.362l-1.393,2.741      c-1.485-0.629-3.572-1.132-5.155-1.132c-1.728,0-2.689,0.766-2.689,1.822c0,1.199,1.2,1.702,3.744,2.28      C400.058,346.629,402.553,347.778,402.553,350.877z" id="svg_9"/>
				<path fill="#FFFFFF" d="M420.934,352.409h-7.559l-1.51,3.432h-3.625l8.063-16.916h1.703l8.088,16.916h-3.627L420.934,352.409z       M414.6,349.558h5.109l-2.566-5.594L414.6,349.558z" id="svg_10"/>
				<path fill="#FFFFFF" d="M440.15,351.474c-0.197,0.024-0.436,0.024-0.648,0.024h-3.141v4.343h-3.432v-16.916h7.459      c4.945,0,6.623,2.929,6.623,6.096c0,2.903-1.201,4.818-3.432,5.78l3.934,5.04h-4.104L440.15,351.474z M436.361,348.665h3.021      c2.732,0,4.027-1.39,4.027-3.38c0-1.754-0.91-3.382-3.574-3.382h-3.475v6.762H436.361z" id="svg_11"/>
				<path fill="#FFFFFF" d="M467.57,352.863v2.978h-12.982v-16.916h12.48v2.979h-9.143v4.292h7.654v2.878h-7.654v3.79      L467.57,352.863L467.57,352.863z" id="svg_12"/>
			</g>
		</g>
		<g id="svg_13">
			<g id="svg_14">

					<linearGradient id="SVGID_1_" x1="0.007366714949070602" y1="0.21842944856100274" x2="1.1904969051134326" y2="0.758945229343812">
					<stop offset="0.2606" style="stop-color:#00AEEF"/>
					<stop offset="0.5091" style="stop-color:#1766A4"/>
					<stop offset="0.8" style="stop-color:#0A3351"/>
				</linearGradient>
				<path fill="url(#SVGID_1_)" d="M448.611,330.126L448.611,330.126l-44.961-81.929c-3.106-5.656-8.163-5.668-11.3-0.023      l-9.263,16.66C407.313,278.845,440.492,320.184,448.611,330.126z" id="svg_15"/>

					<linearGradient id="SVGID_2_" x1="-0.044689432195056916" y1="0.21842944856100274" x2="1.2004870344718057" y2="0.758945229343812">
					<stop offset="0" style="stop-color:#FFFFFF;stop-opacity:0"/>
					<stop offset="0.3152" style="stop-color:#FFFFFF"/>
					<stop offset="0.6788" style="stop-color:#FFFFFF;stop-opacity:0"/>
				</linearGradient>
				<path opacity="0.83" fill="url(#SVGID_2_)" enable-background="new    " d="M448.611,330.126L448.611,330.126l-44.961-81.929      c-3.106-5.656-8.163-5.668-11.3-0.023l-5.998,10.787C410.578,272.973,440.492,320.184,448.611,330.126z" id="svg_16"/>

					<linearGradient id="SVGID_3_" x1="0.05512739855300409" y1="0.1368584758942457" x2="1.06921584758955" y2="0.8627655735995784">
					<stop offset="0.2606" style="stop-color:#00AEEF"/>
					<stop offset="0.5152" style="stop-color:#006CA9"/>
					<stop offset="0.8" style="stop-color:#0A3351"/>
				</linearGradient>
				<path fill="url(#SVGID_3_)" d="M382.207,266.606l-9.395,16.741c24.67,8.175,75.618,46.781,75.672,46.778      C448.484,330.126,407.602,280.814,382.207,266.606z" id="svg_17"/>

					<linearGradient id="SVGID_4_" x1="0.030229078409013302" y1="0.13685511275872722" x2="1.071037278791052" y2="0.8627686965111313">
					<stop offset="0" style="stop-color:#FFFFFF;stop-opacity:0"/>
					<stop offset="0.3152" style="stop-color:#FFFFFF"/>
					<stop offset="0.6788" style="stop-color:#FFFFFF;stop-opacity:0"/>
				</linearGradient>
				<path opacity="0.83" fill="url(#SVGID_4_)" enable-background="new    " d="M382.207,266.606l-7.452,13.284      c19.91,4.086,73.675,50.238,73.73,50.235C448.484,330.126,407.602,280.814,382.207,266.606z" id="svg_18"/>

					<linearGradient id="SVGID_5_" x1="0.07244305986920183" y1="0.3151660162791972" x2="0.8137038229427064" y2="1.27001963004039">
					<stop offset="0.2606" style="stop-color:#00AEEF"/>
					<stop offset="0.5515" style="stop-color:#1766A4"/>
					<stop offset="0.8" style="stop-color:#0A3351"/>
					<stop offset="0.9212" style="stop-color:#0A3351"/>
				</linearGradient>
				<path fill="url(#SVGID_5_)" d="M371.871,285.143l-20.073,35.27c0,0,0.001,0,0.003,0c28.201-28.618,92.004,7.313,95.313,9.148      c0.889,0.43,1.371,0.682,1.371,0.682C389.137,288.992,371.871,285.143,371.871,285.143z" id="svg_19"/>

					<linearGradient id="SVGID_6_" x1="0.03733929255295259" y1="0.16774921726821024" x2="0.842522730210343" y2="1.1226028310294032">
					<stop offset="0" style="stop-color:#FFFFFF;stop-opacity:0"/>
					<stop offset="0.3758" style="stop-color:#FFFFFF"/>
					<stop offset="0.6788" style="stop-color:#FFFFFF;stop-opacity:0"/>
				</linearGradient>
				<path opacity="0.83" fill="url(#SVGID_6_)" enable-background="new    " d="M371.871,285.143l-12.397,21.784      c26.267-17.919,84.332,20.798,87.64,22.634c0.889,0.43,1.371,0.682,1.371,0.682      C389.137,288.992,371.871,285.143,371.871,285.143z" id="svg_20"/>

					<linearGradient id="SVGID_7_" x1="-0.015923368316496427" y1="0.4871702579251511" x2="1.0159241664773258" y2="0.5128318709028487">
					<stop offset="0" style="stop-color:#FFFFFF;stop-opacity:0"/>
					<stop offset="0.0465" style="stop-color:#CECFD7;stop-opacity:0.0586"/>
					<stop offset="0.1253" style="stop-color:#999DAD;stop-opacity:0.1578"/>
					<stop offset="0.2078" style="stop-color:#72788E;stop-opacity:0.2617"/>
					<stop offset="0.2923" style="stop-color:#555F79;stop-opacity:0.3682"/>
					<stop offset="0.3794" style="stop-color:#3C4E69;stop-opacity:0.4778"/>
					<stop offset="0.4698" style="stop-color:#29425E;stop-opacity:0.5918"/>
					<stop offset="0.565" style="stop-color:#193957;stop-opacity:0.7117"/>
					<stop offset="0.6682" style="stop-color:#0E3453;stop-opacity:0.8416"/>
					<stop offset="0.7939" style="stop-color:#0A3351"/>
				</linearGradient>
				<path opacity="0.83" fill="url(#SVGID_7_)" enable-background="new    " d="M386.89,259.32      c6.688,4.045,12.539,9.324,18.028,14.861c5.492,5.549,10.633,11.436,15.584,17.467c4.898,6.075,9.594,12.313,14.168,18.63      c2.287,3.161,4.547,6.342,6.777,9.538l6.623,9.643l-13.717-18.949c-4.627-6.274-9.375-12.457-14.314-18.484      c-4.891-6.064-9.969-11.984-15.402-17.57c-2.717-2.791-5.526-5.495-8.467-8.046C393.245,263.842,390.183,261.414,386.89,259.32z      " id="svg_21"/>

					<linearGradient id="SVGID_8_" x1="0" y1="0.4999983408676377" x2="1.0000003482152402" y2="0.4999983408676377">
					<stop offset="0" style="stop-color:#FFFFFF;stop-opacity:0"/>
					<stop offset="0.0465" style="stop-color:#CECFD7;stop-opacity:0.0586"/>
					<stop offset="0.1253" style="stop-color:#999DAD;stop-opacity:0.1578"/>
					<stop offset="0.2078" style="stop-color:#72788E;stop-opacity:0.2617"/>
					<stop offset="0.2923" style="stop-color:#555F79;stop-opacity:0.3682"/>
					<stop offset="0.3794" style="stop-color:#3C4E69;stop-opacity:0.4778"/>
					<stop offset="0.4698" style="stop-color:#29425E;stop-opacity:0.5918"/>
					<stop offset="0.565" style="stop-color:#193957;stop-opacity:0.7117"/>
					<stop offset="0.6682" style="stop-color:#0E3453;stop-opacity:0.8416"/>
					<stop offset="0.7939" style="stop-color:#0A3351"/>
				</linearGradient>
				<path opacity="0.83" fill="url(#SVGID_8_)" enable-background="new    " d="M359.473,306.927      c3.212-2.284,6.986-3.743,10.878-4.425c3.902-0.682,7.893-0.641,11.818-0.252c7.868,0.844,15.498,3.111,22.881,5.852      c7.365,2.832,14.504,6.205,21.498,9.828c3.498,1.812,6.959,3.692,10.389,5.627c3.418,1.955,6.807,3.965,10.176,6.004      c-3.42-1.956-6.855-3.877-10.318-5.75c-3.447-1.895-6.918-3.752-10.43-5.531c-7.014-3.561-14.166-6.862-21.523-9.625      c-7.332-2.792-14.907-5.106-22.715-6.012c-3.895-0.423-7.854-0.488-11.726,0.146      C366.527,303.369,362.742,304.721,359.473,306.927z" id="svg_22"/>

					<linearGradient id="SVGID_9_" x1="0" y1="0.49999969934017197" x2="1.0000004148158963" y2="0.49999969934017197">
					<stop offset="0" style="stop-color:#FFFFFF;stop-opacity:0"/>
					<stop offset="0.0465" style="stop-color:#CECFD7;stop-opacity:0.0586"/>
					<stop offset="0.1253" style="stop-color:#999DAD;stop-opacity:0.1578"/>
					<stop offset="0.2078" style="stop-color:#72788E;stop-opacity:0.2617"/>
					<stop offset="0.2923" style="stop-color:#555F79;stop-opacity:0.3682"/>
					<stop offset="0.3794" style="stop-color:#3C4E69;stop-opacity:0.4778"/>
					<stop offset="0.4698" style="stop-color:#29425E;stop-opacity:0.5918"/>
					<stop offset="0.565" style="stop-color:#193957;stop-opacity:0.7117"/>
					<stop offset="0.6682" style="stop-color:#0E3453;stop-opacity:0.8416"/>
					<stop offset="0.7939" style="stop-color:#0A3351"/>
				</linearGradient>
				<path opacity="0.83" fill="url(#SVGID_9_)" enable-background="new    " d="M375.042,279.491      c7.063,2.499,13.63,6.194,19.994,10.112c6.366,3.934,12.538,8.168,18.598,12.551c6.025,4.435,11.932,9.024,17.766,13.703      c2.916,2.342,5.813,4.703,8.688,7.096c2.859,2.41,5.701,4.838,8.523,7.289c-2.887-2.375-5.789-4.732-8.707-7.068      c-2.902-2.355-5.814-4.693-8.75-7.008c-5.871-4.623-11.814-9.156-17.867-13.532c-6.018-4.429-12.139-8.713-18.458-12.699      c-3.16-1.988-6.374-3.896-9.661-5.666C381.894,282.48,378.54,280.818,375.042,279.491z" id="svg_23"/>
			</g>
		</g>
	</g>
</g><g id="svg_24" class="">
	<g id="svg_25">
		<g id="svg_26">
			<path fill="#1D2528" d="M145.69414721679686,51.6821319580078 h-13.623 l-2.726,6.187 h-6.53 l14.534,-30.495 h3.07 l14.574,30.496 h-6.531 L145.69414721679686,51.6821319580078 zM134.2791472167969,46.542131958007815 h9.21 l-4.626,-10.085 L134.2791472167969,46.542131958007815 z" id="svg_27"/>
			<path fill="#1D2528" d="M185.22714721679688,27.37413195800781 h6.746 l-14.227,30.496 h-2.856 l-14.188,-30.496 h6.706 l8.909,19.901 L185.22714721679688,27.37413195800781 z" id="svg_28"/>
			<path fill="#1D2528" d="M210.87614721679688,57.86913195800781 h-6.23 v-30.495 h6.23 V57.86913195800781 z" id="svg_29"/>
			<path fill="#1D2528" d="M248.9761472167969,48.92213195800781 c0,5.881 -4.711,9.331 -11.803,9.331 c-5.194,0 -7.828,-0.47600000000000003 -12.675,-2.8970000000000002 l2.246,-4.792 c4.027,1.94 6.838,2.335 10.643,2.335 c3.331,0 5.318,-1.215 5.318,-3.469 c0,-2.073 -2.034,-2.9779999999999998 -6.485,-4.02 c-6.277,-1.4260000000000002 -11.334,-3.193 -11.334,-9.21 c0,-5.356 4.282,-9.162 11.242,-9.162 c4.6290000000000004,0 8.693,1.1680000000000001 11.68,2.457 l-2.511,4.94 c-2.677,-1.134 -6.439,-2.039 -9.293,-2.039 c-3.115,0 -4.848,1.381 -4.848,3.285 c0,2.162 2.1630000000000003,3.066 6.75,4.108 C244.47814721679686,41.264131958007795 248.9761472167969,43.33313195800781 248.9761472167969,48.92213195800781 z" id="svg_30"/>
			<path fill="#1D2528" d="M282.11314721679685,51.6821319580078 h-13.629 l-2.72,6.187 h-6.535 l14.536,-30.495 h3.068 l14.581,30.496 h-6.539 L282.11314721679685,51.6821319580078 zM270.69414721679686,46.542131958007815 h9.208 l-4.6240000000000006,-10.085 L270.69414721679686,46.542131958007815 z" id="svg_31"/>
			<path fill="#1D2528" d="M316.7541472167969,49.99613195800782 c-0.35300000000000004,0.04500000000000001 -0.784,0.04500000000000001 -1.166,0.04500000000000001 h-5.662 v7.828 h-6.187 v-30.495 h13.445 c8.915,0 11.94,5.282 11.94,10.99 c0,5.235 -2.1630000000000003,8.686 -6.185,10.422 l7.092,9.084 h-7.398 L316.7541472167969,49.99613195800782 zM309.92614721679683,44.9321319580078 h5.446 c4.925,0 7.258,-2.504 7.258,-6.092 c0,-3.162 -1.641,-6.099 -6.443,-6.099 h-6.263 v12.19 H309.92614721679683 z" id="svg_32"/>
			<path fill="#1D2528" d="M366.1881472167969,52.502131958007794 v5.367 h-23.403 v-30.495 h22.498 v5.37 h-16.484 v7.739 h13.798 v5.187 h-13.798 v6.834 h17.389 V52.502131958007794 z" id="svg_33"/>
		</g>
	</g>
	<g id="svg_34">
		<g id="svg_35">

				<linearGradient id="SVGID_10_" x1="0.0073773318997690665" y1="0.2184335438580436" x2="1.1904992234860223" y2="0.7589494059453781" transform="translate(-262.1428527832031,-247.1428680419922) ">
				<stop offset="0.2606" style="stop-color:#3AB6FC"/>
				<stop offset="0.5091" style="stop-color:#3E8AD4"/>
				<stop offset="0.8" style="stop-color:#3B87CF"/>
			</linearGradient>
			<path fill="url(#SVGID_10_)" d="M102.1011472167969,91.07113195800781 L102.1011472167969,91.07113195800781 l-46.626,-84.963 c-3.22,-5.866 -8.464,-5.878 -11.719,-0.024000000000000004 l-9.606,17.277 C59.27314721679687,37.891131958007804 93.68214721679686,80.76213195800779 102.1011472167969,91.07113195800781 z" id="svg_36"/>

				<linearGradient id="SVGID_11_" x1="-0.04468852834048474" y1="0.2184335438580436" x2="1.2004801324972845" y2="0.7589494059453781" transform="translate(-262.1428527832031,-247.1428680419922) ">
				<stop offset="0" style="stop-color:#FFFFFF;stop-opacity:0"/>
				<stop offset="0.3152" style="stop-color:#FFFFFF"/>
				<stop offset="0.6788" style="stop-color:#FFFFFF;stop-opacity:0"/>
			</linearGradient>
			<path opacity="0.4" fill="url(#SVGID_11_)" enable-background="new    " d="M102.10014721679687,91.07113195800781 L102.10014721679687,91.07113195800781 l-46.626,-84.963 c-3.22,-5.866 -8.464,-5.878 -11.719,-0.024000000000000004 l-6.22,11.187 C62.65814721679686,31.80113195800783 93.68014721679685,80.76213195800779 102.10014721679687,91.07113195800781 z" id="svg_37"/>

				<linearGradient id="SVGID_12_" x1="0.055123814797733" y1="0.1368640065082444" x2="1.0692070237549884" y2="0.8627734720473961" transform="translate(-262.1428527832031,-247.1428680419922) ">
				<stop offset="0.2606" style="stop-color:#3AB6FC"/>
				<stop offset="0.5091" style="stop-color:#3E8AD4"/>
				<stop offset="0.8" style="stop-color:#3B87CF"/>
			</linearGradient>
			<path fill="url(#SVGID_12_)" d="M33.23814721679685,25.199131958007797 l-9.743,17.361 c25.584,8.478 78.418,48.515 78.476,48.511 C101.97114721679685,91.07113195800781 59.57214721679685,39.93413195800781 33.23814721679685,25.199131958007797 z" id="svg_38"/>

				<linearGradient id="SVGID_13_" x1="0.03022561798685598" y1="0.13686394310106953" x2="1.0710336646877996" y2="0.8627730723365458" transform="translate(-262.1428527832031,-247.1428680419922) ">
				<stop offset="0" style="stop-color:#FFFFFF;stop-opacity:0"/>
				<stop offset="0.3152" style="stop-color:#FFFFFF"/>
				<stop offset="0.6788" style="stop-color:#FFFFFF;stop-opacity:0"/>
			</linearGradient>
			<path opacity="0.4" fill="url(#SVGID_13_)" enable-background="new    " d="M33.45314721679688,25.199131958007797 l-7.728,13.776 c20.647,4.237 76.404,52.1 76.461,52.096 C102.18614721679688,91.07113195800781 59.78714721679688,39.93413195800781 33.45314721679688,25.199131958007797 z" id="svg_39"/>

				<linearGradient id="SVGID_14_" x1="0.07244338501114252" y1="0.3151806879865636" x2="0.813706357472302" y2="1.2700535509562765" transform="translate(-262.1428527832031,-247.1428680419922) ">
				<stop offset="0.2606" style="stop-color:#3AB6FC"/>
				<stop offset="0.5091" style="stop-color:#4393E3"/>
				<stop offset="0.8" style="stop-color:#3B87CF"/>
			</linearGradient>
			<path fill="url(#SVGID_14_)" d="M22.519147216796853,44.42213195800781 l-20.816,36.576 c0,0 0.0010000000000000002,0 0.003000000000000001,0 c29.246,-29.679 95.413,7.584 98.843,9.487 c0.923,0.44600000000000006 1.423,0.7070000000000001 1.423,0.7070000000000001 C40.42514721679686,48.415131958007805 22.519147216796853,44.42213195800781 22.519147216796853,44.42213195800781 z" id="svg_40"/>

				<linearGradient id="SVGID_15_" x1="0.03734500535906389" y1="0.16775762890580143" x2="0.8425284863504213" y2="1.1226102576550054" transform="translate(-262.1428527832031,-247.1428680419922) ">
				<stop offset="0" style="stop-color:#FFFFFF;stop-opacity:0"/>
				<stop offset="0.3758" style="stop-color:#FFFFFF"/>
				<stop offset="0.6788" style="stop-color:#FFFFFF;stop-opacity:0"/>
			</linearGradient>
			<path opacity="0.4" fill="url(#SVGID_15_)" enable-background="new    " d="M22.844147216796898,44.42213195800781 l-12.856,22.591 c27.24,-18.582 87.456,21.569 90.886,23.473 c0.923,0.44600000000000006 1.423,0.7070000000000001 1.423,0.7070000000000001 C40.75114721679688,48.415131958007805 22.844147216796898,44.42213195800781 22.844147216796898,44.42213195800781 z" id="svg_41"/>

				<linearGradient id="SVGID_16_" x1="-0.015922032410738585" y1="0.4871717050247054" x2="1.0159286589405983" y2="0.5128336913736901" transform="translate(-262.1428527832031,-247.1428680419922) ">
				<stop offset="0" style="stop-color:#FFFFFF;stop-opacity:0"/>
				<stop offset="0.0465" style="stop-color:#CECFD7;stop-opacity:0.0586"/>
				<stop offset="0.1253" style="stop-color:#999DAD;stop-opacity:0.1578"/>
				<stop offset="0.2078" style="stop-color:#72788E;stop-opacity:0.2617"/>
				<stop offset="0.2923" style="stop-color:#555F79;stop-opacity:0.3682"/>
				<stop offset="0.3794" style="stop-color:#3C4E69;stop-opacity:0.4778"/>
				<stop offset="0.4698" style="stop-color:#135C99;stop-opacity:0.5918"/>
				<stop offset="0.565" style="stop-color:#2D7BBD;stop-opacity:0.7117"/>
				<stop offset="0.6682" style="stop-color:#2D7BBD;stop-opacity:0.8416"/>
				<stop offset="0.7939" style="stop-color:#2D7BBD"/>
			</linearGradient>
			<path opacity="0.83" fill="url(#SVGID_16_)" enable-background="new    " d="M38.0941472167969,17.64413195800779 c6.936,4.195 13.003,9.669 18.695,15.411 c5.695,5.755 11.027,11.86 16.161,18.114 c5.08,6.3 9.95,12.769 14.693,19.319 c2.373,3.279 4.715,6.577 7.028,9.892 l6.869,10 l-14.226,-19.651 c-4.797,-6.507 -9.721,-12.919 -14.843,-19.17 c-5.073,-6.289 -10.339,-12.428 -15.974,-18.221 c-2.818,-2.894 -5.73,-5.699 -8.781,-8.344 C44.68514721679685,22.332131958007835 41.50914721679686,19.81513195800784 38.0941472167969,17.64413195800779 z" id="svg_42"/>

				<linearGradient id="SVGID_17_" x1="-0.00000436507177017427" y1="0.5000074661490137" x2="0.9999862332351864" y2="0.5000074661490137" transform="translate(-262.1428527832031,-247.1428680419922) ">
				<stop offset="0" style="stop-color:#FFFFFF;stop-opacity:0"/>
				<stop offset="0.0465" style="stop-color:#CECFD7;stop-opacity:0.0586"/>
				<stop offset="0.1253" style="stop-color:#999DAD;stop-opacity:0.1578"/>
				<stop offset="0.2078" style="stop-color:#72788E;stop-opacity:0.2617"/>
				<stop offset="0.2923" style="stop-color:#555F79;stop-opacity:0.3682"/>
				<stop offset="0.3794" style="stop-color:#3C4E69;stop-opacity:0.4778"/>
				<stop offset="0.4698" style="stop-color:#135C99;stop-opacity:0.5918"/>
				<stop offset="0.565" style="stop-color:#2D7BBD;stop-opacity:0.7117"/>
				<stop offset="0.6682" style="stop-color:#2D7BBD;stop-opacity:0.8416"/>
				<stop offset="0.7939" style="stop-color:#2D7BBD"/>
			</linearGradient>
			<path opacity="0.83" fill="url(#SVGID_17_)" enable-background="new    " d="M9.663147216796858,67.01313195800782 c3.331,-2.368 7.245,-3.8810000000000002 11.281,-4.588 c4.047,-0.7070000000000001 8.185,-0.6650000000000001 12.256,-0.261 c8.159,0.8750000000000001 16.072,3.226 23.729,6.069 c7.638,2.9370000000000003 15.041,6.4350000000000005 22.295,10.192 c3.6270000000000002,1.8780000000000001 7.217,3.8280000000000003 10.773,5.835 c3.545,2.027 7.059,4.112 10.553,6.226 c-3.5460000000000003,-2.029 -7.109,-4.021 -10.699,-5.963 c-3.576,-1.965 -7.175,-3.891 -10.816,-5.736 c-7.274,-3.693 -14.691,-7.117 -22.321,-9.982 c-7.603,-2.896 -15.458,-5.296 -23.556,-6.235 c-4.039,-0.44000000000000006 -8.145,-0.506 -12.16,0.15000000000000002 C16.97714721679688,63.3241319580078 13.052147216796868,64.72613195800784 9.663147216796858,67.01313195800782 z" id="svg_43"/>

				<linearGradient id="SVGID_18_" x1="0.00000399994560073983" y1="0.4999852143484601" x2="0.9999912001196783" y2="0.4999852143484601" transform="translate(-262.1428527832031,-247.1428680419922) ">
				<stop offset="0" style="stop-color:#FFFFFF;stop-opacity:0"/>
				<stop offset="0.0465" style="stop-color:#CECFD7;stop-opacity:0.0586"/>
				<stop offset="0.1253" style="stop-color:#999DAD;stop-opacity:0.1578"/>
				<stop offset="0.2078" style="stop-color:#72788E;stop-opacity:0.2617"/>
				<stop offset="0.2923" style="stop-color:#555F79;stop-opacity:0.3682"/>
				<stop offset="0.3794" style="stop-color:#3C4E69;stop-opacity:0.4778"/>
				<stop offset="0.4698" style="stop-color:#135C99;stop-opacity:0.5918"/>
				<stop offset="0.565" style="stop-color:#2D7BBD;stop-opacity:0.7117"/>
				<stop offset="0.6682" style="stop-color:#2D7BBD;stop-opacity:0.8416"/>
				<stop offset="0.7939" style="stop-color:#2D7BBD"/>
			</linearGradient>
			<path opacity="0.83" fill="url(#SVGID_18_)" enable-background="new    " d="M25.808147216796897,38.5621319580078 c7.325,2.592 14.135,6.423 20.735,10.487 c6.601,4.08 13.001,8.471 19.288,13.016 c6.248,4.598 12.374,9.357 18.423000000000002,14.211 c3.025,2.4290000000000003 6.028,4.877 9.01,7.359 c2.965,2.499 5.912,5.017 8.839,7.559 c-2.993,-2.463 -6.002,-4.907 -9.028,-7.33 c-3.009,-2.442 -6.03,-4.867 -9.074,-7.268 c-6.09,-4.7940000000000005 -12.253,-9.495 -18.53,-14.034 c-6.241,-4.5920000000000005 -12.589,-9.035 -19.141,-13.169 c-3.277,-2.062 -6.61,-4.04 -10.019,-5.876 C32.91314721679686,41.66213195800782 29.43514721679685,39.93813195800783 25.808147216796897,38.5621319580078 z" id="svg_44"/>
		</g>
	</g>
</g></g></svg>
