<svg xmlns="http://www.w3.org/2000/svg" xmlns:xlink="http://www.w3.org/1999/xlink" version="1.1" width="200" height="130" enable-background="new 0 0 800 600" xml:space="preserve" style=""><rect id="backgroundrect" width="100%" height="100%" x="0" y="0" fill="none" stroke="none"/>

<g class="currentLayer" style=""><title>Layer 1</title><g id="svg_1" class="">
	<g id="svg_11">
		<g id="svg_12">
			<linearGradient id="SVGID_1_" x1="0.007354100700467825" y1="0.2184297740459442" x2="1.1904939413070679" y2="0.7589417695999146" transform="translate(-0.6849315166473389,-19.863012313842773) translate(0,-12.328766822814941) translate(-3.4246573448181152,-10.273972511291504) translate(-295.8904113769531,-174.65753173828125) ">
				<stop offset="0.2606" style="stop-color:#00AEEF"/>
				<stop offset="0.5091" style="stop-color:#1766A4"/>
				<stop offset="0.8" style="stop-color:#0A3351"/>
			</linearGradient>
			<path fill="url(#SVGID_1_)" d="M172.46099976158143,127.02971661376955 L172.46099976158143,127.02971661376955 l-65.874,-120.037 c-4.549,-8.287 -11.958,-8.304 -16.555,-0.03400000000000003 l-13.571,24.409 C111.9529997615814,51.89571661376954 160.96799976158144,112.07871661376953 172.46099976158143,127.02971661376955 z" id="svg_13"/>
			<linearGradient id="SVGID_2_" x1="-0.044695913791656494" y1="0.2184297740459442" x2="1.2004826068878174" y2="0.7589417695999146" transform="translate(-0.6849315166473389,-19.863012313842773) translate(0,-12.328766822814941) translate(-3.4246573448181152,-10.273972511291504) translate(-295.8904113769531,-174.65753173828125) ">
				<stop offset="0" style="stop-color:#FFFFFF;stop-opacity:0"/>
				<stop offset="0.3152" style="stop-color:#FFFFFF"/>
				<stop offset="0.6788" style="stop-color:#FFFFFF;stop-opacity:0"/>
			</linearGradient>
			<path opacity="0.83" fill="url(#SVGID_2_)" d="M172.46099976158143,127.02971661376955 L172.46099976158143,127.02971661376955 l-65.874,-120.037 c-4.549,-8.287 -11.958,-8.304 -16.555,-0.03400000000000003 l-8.788,15.805 C116.73699976158144,43.29171661376955 160.5659997615814,112.46271661376954 172.46099976158143,127.02971661376955 z" id="svg_14"/>
			<linearGradient id="SVGID_3_" x1="0.05503929778933525" y1="0.136837437748909" x2="1.0692086219787598" y2="0.8627790212631226" transform="translate(-0.6849315166473389,-19.863012313842773) translate(0,-12.328766822814941) translate(-3.4246573448181152,-10.273972511291504) translate(-295.8904113769531,-174.65753173828125) ">
				<stop offset="0.2606" style="stop-color:#00AEEF"/>
				<stop offset="0.5152" style="stop-color:#006CA9"/>
				<stop offset="0.8" style="stop-color:#0A3351"/>
			</linearGradient>
			<path fill="url(#SVGID_3_)" d="M75.17099976158141,33.96571661376953 l-13.765,24.527 c36.145,11.977 110.87,68.615 110.952,68.609 C172.35799976158142,127.10271661376953 112.37699976158143,54.781716613769504 75.17099976158141,33.96571661376953 z" id="svg_15"/>
			<linearGradient id="SVGID_4_" x1="0.030162174254655838" y1="0.1368359625339508" x2="1.071030616760254" y2="0.8627697229385376" transform="translate(-0.6849315166473389,-19.863012313842773) translate(0,-12.328766822814941) translate(-3.4246573448181152,-10.273972511291504) translate(-295.8904113769531,-174.65753173828125) ">
				<stop offset="0" style="stop-color:#FFFFFF;stop-opacity:0"/>
				<stop offset="0.3152" style="stop-color:#FFFFFF"/>
				<stop offset="0.6788" style="stop-color:#FFFFFF;stop-opacity:0"/>
			</linearGradient>
			<path opacity="0.83" fill="url(#SVGID_4_)" d="M75.17099976158141,33.96571661376953 l-10.919,19.463 c29.171,5.986 108.024,73.68 108.106,73.674 C172.35799976158142,127.10271661376953 112.37699976158143,54.781716613769504 75.17099976158141,33.96571661376953 z" id="svg_16"/>
			<linearGradient id="SVGID_5_" x1="0.08196348696947098" y1="0.35242003202438354" x2="0.8074631690979004" y2="1.3072795867919922" transform="translate(-0.6849315166473389,-19.863012313842773) translate(0,-12.328766822814941) translate(-3.4246573448181152,-10.273972511291504) translate(-295.8904113769531,-174.65753173828125) ">
				<stop offset="0.2606" style="stop-color:#00AEEF"/>
				<stop offset="0.5515" style="stop-color:#1766A4"/>
				<stop offset="0.8" style="stop-color:#0A3351"/>
				<stop offset="0.9212" style="stop-color:#0A3351"/>
			</linearGradient>
			<path fill="url(#SVGID_5_)" d="M60.02699976158141,61.12271661376951 l-32.488,56.524 c0,0 0.0010000000000000009,0 0.0040000000000000036,0 c41.318,-41.93 137.877,5.865 142.724,8.555 c1.304,0.6310000000000004 2.011,0.999 2.011,0.999 C85.32499976158141,66.76271661376956 60.02699976158141,61.12271661376951 60.02699976158141,61.12271661376951 z" id="svg_17"/>
			<linearGradient id="SVGID_6_" x1="0.03734937310218811" y1="0.16775761544704437" x2="0.842539370059967" y2="1.1226162910461426" transform="translate(-0.6849315166473389,-19.863012313842773) translate(0,-12.328766822814941) translate(-3.4246573448181152,-10.273972511291504) translate(-295.8904113769531,-174.65753173828125) ">
				<stop offset="0" style="stop-color:#FFFFFF;stop-opacity:0"/>
				<stop offset="0.3758" style="stop-color:#FFFFFF"/>
				<stop offset="0.6788" style="stop-color:#FFFFFF;stop-opacity:0"/>
			</linearGradient>
			<path opacity="0.83" fill="url(#SVGID_6_)" d="M60.02699976158141,61.12271661376951 l-18.164,31.917 c38.483,-26.254 123.557,30.473 128.403,33.162 c1.304,0.6310000000000004 2.011,0.999 2.011,0.999 C85.32499976158141,66.76271661376956 60.02699976158141,61.12271661376951 60.02699976158141,61.12271661376951 z" id="svg_18"/>

				<linearGradient id="SVGID_7_" x1="-0.015919070690870285" y1="0.48717185854911804" x2="1.015923261642456" y2="0.5128337144851685" transform="translate(-0.6849315166473389,-19.863012313842773) translate(0,-12.328766822814941) translate(-3.4246573448181152,-10.273972511291504) translate(-295.8904113769531,-174.65753173828125) ">
				<stop offset="0" style="stop-color:#FFFFFF;stop-opacity:0"/>
				<stop offset="0.0465" style="stop-color:#CECFD7;stop-opacity:0.0586"/>
				<stop offset="0.1253" style="stop-color:#999DAD;stop-opacity:0.1578"/>
				<stop offset="0.2078" style="stop-color:#72788E;stop-opacity:0.2617"/>
				<stop offset="0.2923" style="stop-color:#555F79;stop-opacity:0.3682"/>
				<stop offset="0.3794" style="stop-color:#3C4E69;stop-opacity:0.4778"/>
				<stop offset="0.4698" style="stop-color:#29425E;stop-opacity:0.5918"/>
				<stop offset="0.565" style="stop-color:#193957;stop-opacity:0.7117"/>
				<stop offset="0.6682" style="stop-color:#0E3453;stop-opacity:0.8416"/>
				<stop offset="0.7939" style="stop-color:#0A3351"/>
			</linearGradient>
			<path opacity="0.83" fill="url(#SVGID_7_)" d="M82.0319997615814,23.289716613769542 c9.799,5.926 18.372,13.661 26.412,21.773 c8.048,8.13 15.579,16.755 22.833,25.592 c7.179,8.9 14.058,18.039 20.758,27.295 c3.353,4.631 6.662,9.291 9.931000000000001,13.975 l9.705,14.129 l-20.1,-27.765 c-6.777,-9.192 -13.733,-18.251 -20.971,-27.082 c-7.167,-8.886 -14.607,-17.559 -22.568,-25.743 c-3.979,-4.089 -8.095,-8.051 -12.404,-11.787 C91.34299976158144,29.914716613769542 86.85699976158145,26.35671661376952 82.0319997615814,23.289716613769542 z" id="svg_19"/>
			<linearGradient id="SVGID_8_" x1="0.0000023767031507304637" y1="0.4999984800815582" x2="1.000004768371582" y2="0.4999984800815582" transform="translate(-0.6849315166473389,-19.863012313842773) translate(0,-12.328766822814941) translate(-3.4246573448181152,-10.273972511291504) translate(-295.8904113769531,-174.65753173828125) ">
				<stop offset="0" style="stop-color:#FFFFFF;stop-opacity:0"/>
				<stop offset="0.0465" style="stop-color:#CECFD7;stop-opacity:0.0586"/>
				<stop offset="0.1253" style="stop-color:#999DAD;stop-opacity:0.1578"/>
				<stop offset="0.2078" style="stop-color:#72788E;stop-opacity:0.2617"/>
				<stop offset="0.2923" style="stop-color:#555F79;stop-opacity:0.3682"/>
				<stop offset="0.3794" style="stop-color:#3C4E69;stop-opacity:0.4778"/>
				<stop offset="0.4698" style="stop-color:#29425E;stop-opacity:0.5918"/>
				<stop offset="0.565" style="stop-color:#193957;stop-opacity:0.7117"/>
				<stop offset="0.6682" style="stop-color:#0E3453;stop-opacity:0.8416"/>
				<stop offset="0.7939" style="stop-color:#0A3351"/>
			</linearGradient>
			<path opacity="0.83" fill="url(#SVGID_8_)" d="M41.86299976158142,93.03971661376954 c4.706,-3.348 10.235,-5.484 15.938,-6.483 c5.7170000000000005,-0.999 11.563,-0.9380000000000004 17.315,-0.3690000000000002 c11.527,1.236 22.707,4.559 33.523,8.573 c10.791,4.149 21.25,9.092 31.499,14.399000000000001 c5.124,2.654 10.195,5.41 15.22,8.245 c5.008,2.865 9.973,5.811 14.908,8.797 c-5.009,-2.867 -10.045,-5.68 -15.116,-8.426 c-5.053,-2.775 -10.138,-5.496 -15.281,-8.104 c-10.275,-5.217 -20.755,-10.055 -31.536,-14.102 c-10.74,-4.091 -21.839,-7.482 -33.279,-8.809 c-5.706,-0.6190000000000004 -11.507,-0.7150000000000004 -17.18,0.2130000000000001 C52.1979997615814,87.82671661376952 46.65199976158141,89.80771661376951 41.86299976158142,93.03971661376954 z" id="svg_20"/>
			<linearGradient id="SVGID_9_" x1="-0.0000019837766558339354" y1="0.5000026822090149" x2="0.9999940395355225" y2="0.5000026822090149" transform="translate(-0.6849315166473389,-19.863012313842773) translate(0,-12.328766822814941) translate(-3.4246573448181152,-10.273972511291504) translate(-295.8904113769531,-174.65753173828125) ">
				<stop offset="0" style="stop-color:#FFFFFF;stop-opacity:0"/>
				<stop offset="0.0465" style="stop-color:#CECFD7;stop-opacity:0.0586"/>
				<stop offset="0.1253" style="stop-color:#999DAD;stop-opacity:0.1578"/>
				<stop offset="0.2078" style="stop-color:#72788E;stop-opacity:0.2617"/>
				<stop offset="0.2923" style="stop-color:#555F79;stop-opacity:0.3682"/>
				<stop offset="0.3794" style="stop-color:#3C4E69;stop-opacity:0.4778"/>
				<stop offset="0.4698" style="stop-color:#29425E;stop-opacity:0.5918"/>
				<stop offset="0.565" style="stop-color:#193957;stop-opacity:0.7117"/>
				<stop offset="0.6682" style="stop-color:#0E3453;stop-opacity:0.8416"/>
				<stop offset="0.7939" style="stop-color:#0A3351"/>
			</linearGradient>
			<path opacity="0.83" fill="url(#SVGID_9_)" d="M64.6739997615814,52.84271661376954 c10.348,3.662 19.97,9.076 29.294,14.816 c9.326,5.763 18.369,11.967 27.25,18.389 c8.828,6.497 17.481,13.222 26.027,20.076 c4.273,3.432 8.518,6.891 12.729,10.396 c4.189,3.532 8.249,6.991 12.385,10.582 c-4.229,-3.479 -8.377,-6.836 -12.652000000000001,-10.258 c-4.252,-3.452 -8.521,-6.877 -12.82,-10.268 c-8.604,-6.773 -17.312,-13.416 -26.179,-19.827 c-8.816,-6.489 -17.785,-12.766 -27.042,-18.606 c-4.63,-2.912 -9.339,-5.707 -14.155,-8.301 C74.71299976158144,57.222716613769535 69.79799976158142,54.786716613769556 64.6739997615814,52.84271661376954 z" id="svg_21"/>
		</g>
	</g>
</g><image id="svg_23" x="102" y="94" width="2" height="8" xlink:href="logo/vector_paint_icon256.png" style="color: rgb(0, 0, 0);"/></g></svg>
